<?xml version="1.0" standalone="no"?>
<!DOCTYPE svg PUBLIC "-//W3C//DTD SVG 20010904//EN"
 "http://www.w3.org/TR/2001/REC-SVG-20010904/DTD/svg10.dtd">
<svg version="1.0" xmlns="http://www.w3.org/2000/svg"
 width="512.000000pt" height="512.000000pt" viewBox="0 0 512.000000 512.000000"
 preserveAspectRatio="xMidYMid meet">
<metadata>
Created by potrace 1.11, written by Peter Selinger 2001-2013
</metadata>
<g transform="translate(0.000000,512.000000) scale(0.100000,-0.100000)"
fill="#000000" stroke="none">
<path d="M2378 5110 c-616 -45 -1184 -305 -1623 -744 -416 -416 -661 -922
-736 -1516 -16 -124 -16 -457 0 -585 94 -755 499 -1416 1121 -1830 327 -218
661 -346 1055 -406 184 -29 510 -31 695 -5 584 80 1107 344 1510 762 871 903
958 2303 204 3308 -414 551 -1036 914 -1714 1000 -154 19 -369 26 -512 16z
m447 -485 c438 -58 844 -249 1162 -548 81 -77 195 -207 247 -282 l28 -40 -29
35 c-99 121 -174 208 -188 220 -14 11 -21 8 -55 -25 l-40 -39 98 -100 c112
-115 176 -195 254 -316 163 -252 268 -526 312 -819 l13 -86 4 55 c3 30 5 -19
6 -110 1 -95 -5 -214 -13 -280 -87 -685 -517 -1287 -1139 -1595 -197 -98 -354
-149 -580 -191 -137 -25 -469 -30 -620 -10 -948 130 -1677 872 -1795 1826 -13
109 -13 371 0 480 59 474 264 896 599 1231 327 327 739 531 1197 593 137 19
398 19 539 1z m1478 -924 c27 -46 14 -38 -18 12 -16 23 -22 37 -14 30 8 -6 22
-25 32 -42z m62 -101 c9 -16 13 -30 11 -30 -3 0 -12 14 -21 30 -9 17 -13 30
-11 30 3 0 12 -13 21 -30z m61 -111 c14 -28 24 -53 22 -55 -2 -2 -16 21 -31
51 -15 30 -25 55 -22 55 3 0 16 -23 31 -51z m63 -144 c0 -5 -6 1 -14 15 -8 14
-14 30 -14 35 0 6 6 -1 14 -15 8 -14 14 -29 14 -35z m31 -80 c0 -5 -5 -3 -10
5 -5 8 -10 20 -10 25 0 6 5 3 10 -5 5 -8 10 -19 10 -25z m37 -127 c-3 -8 -6
-5 -6 6 -1 11 2 17 5 13 3 -3 4 -12 1 -19z m20 -70 c-3 -8 -6 -5 -6 6 -1 11 2
17 5 13 3 -3 4 -12 1 -19z m10 -50 c-3 -7 -5 -2 -5 12 0 14 2 19 5 13 2 -7 2
-19 0 -25z m10 -40 c-3 -8 -6 -5 -6 6 -1 11 2 17 5 13 3 -3 4 -12 1 -19z m10
-50 c-3 -8 -6 -5 -6 6 -1 11 2 17 5 13 3 -3 4 -12 1 -19z m10 -65 c-3 -10 -5
-4 -5 12 0 17 2 24 5 18 2 -7 2 -21 0 -30z m10 -80 c-3 -10 -5 -2 -5 17 0 19
2 27 5 18 2 -10 2 -26 0 -35z"/>
<path d="M2421 3028 c-36 -5 -261 -67 -500 -138 -240 -70 -584 -172 -766 -225
-181 -53 -334 -100 -338 -105 -5 -4 4 -11 20 -14 15 -4 163 -47 328 -96 1252
-372 1243 -369 1385 -370 295 -1 525 258 483 544 -28 197 -172 355 -364 401
-70 16 -150 17 -248 3z m220 -331 c77 -52 101 -140 58 -217 -80 -142 -299 -81
-299 82 0 85 75 158 160 158 32 0 58 -7 81 -23z"/>
</g>
</svg>
